ISO-10303-21;
HEADER;
FILE_DESCRIPTION(('ViewDefinition [CoordinationView]'),'2;1');
FILE_NAME('sample.ifc','2026-01-01T00:00:00',('CAFM Author'),('CAFM Org'),'Processor','System','Authorization');
FILE_SCHEMA(('IFC4'));
ENDSEC;
DATA;
#1= IFCORGANIZATION($,'CAFM Org',$,$,$);
#2= IFCAPPLICATION(#1,'1.0','CAFM 3D','CAFM');
#3= IFCPERSON($,'Admin',$,$,$,$,$,$);
#4= IFCPERSONANDORGANIZATION(#3,#1,$);
#5= IFCOWNERHISTORY(#4,#2,$,.ADDED.,$,$,$,0);
#6= IFCDIRECTION((1.,0.,0.));
#7= IFCDIRECTION((0.,0.,1.));
#8= IFCCARTESIANPOINT((0.,0.,0.));
#9= IFCAXIS2PLACEMENT3D(#8,#7,#6);
#10= IFCDIRECTION((0.,1.,0.));
#11= IFCGEOMETRICREPRESENTATIONCONTEXT($,'Model',3,1.0E-05,#9,#10);
#12= IFCPROJECT('0123456789012345678901',#5,'Sample Building Project',$,$,$,$,(#11),$);
#13= IFCSITE('0123456789012345678902',#5,'Site',$,$,$,$,$,.ELEMENT.,$,$,$,$,$);
#14= IFCRELAGGREGATES('0123456789012345678903',#5,$,$,#12,(#13));
#15= IFCBUILDING('0123456789012345678904',#5,'Bâtiment Alpha',$,$,$,$,$,.ELEMENT.,$,$,$);
#16= IFCRELAGGREGATES('0123456789012345678905',#5,$,$,#13,(#15));
#17= IFCBUILDINGSTOREY('0123456789012345678906',#5,'Niveau L2',$,$,$,$,$,.ELEMENT.,0.);
#18= IFCRELAGGREGATES('0123456789012345678907',#5,$,$,#15,(#17));
#19= IFCSHAPEREPRESENTATION(#11,'Body','SweptSolid',(#25));
#20= IFCPRODUCTDEFINITIONSHAPE($,$,(#19));
#21= IFCCARTESIANPOINT((0.,0.,0.));
#22= IFCAXIS2PLACEMENT3D(#21,$,$);
#23= IFCLOCALPLACEMENT($,#22);
#24= IFCRECTANGLEPROFILEDEF(.AREA.,$,$,4.0,4.0);
#25= IFCEXTRUDEDAREASOLID(#24,$,#7,3.0);
#26= IFCBUILDINGELEMENTPROXY('0123456789012345678908',#5,'AHU-2 CVC Principal',$,$,#23,#20,$,$);
#27= IFCRELCONTAINEDINSPATIALSTRUCTURE('0123456789012345678909',#5,$,$,(#26),#17);
ENDSEC;
END-ISO-10303-21;
